# This file uses centimeters as units for non-parametric coordinates.

mtllib Foam.mtl
g default
v -0.930716 0.440208 1.170815
v -0.930716 0.962002 1.170815
v -1.275424 0.962002 0.457187
v -1.275424 0.440208 0.457187
v -1.275424 0.962002 -1.030496
v -1.275424 0.440208 -1.030496
v -0.553918 0.440208 1.171693
v -0.553918 0.962002 1.171693
v -0.550000 0.962002 -0.001839
v -0.550000 0.962002 -1.030496
v -0.550000 0.440208 -1.030496
v -0.550000 0.440208 -0.001839
v -1.106770 0.962002 -1.210394
v -0.550000 0.962002 -1.210394
v -0.550000 0.440208 -1.210394
v -1.106770 0.440208 -1.210394
v -0.550000 0.962002 -1.941230
v -0.550000 0.440208 -1.941230
v -0.050000 0.962002 -0.001839
v -0.050000 0.440208 -0.001839
v -0.050000 0.440208 -1.030496
v -0.050000 0.962002 -1.030496
v -0.050000 0.962002 -1.210394
v -0.050000 0.440208 -1.210394
v -0.050000 0.962002 -1.941230
v -0.050000 0.440208 -1.941230
v 0.922192 0.440208 1.170815
v 0.922192 0.962002 1.170815
v 1.266899 0.962002 0.457187
v 1.266899 0.440208 0.457187
v 1.266899 0.962002 -1.030496
v 1.266899 0.440208 -1.030496
v 0.545393 0.440208 1.171693
v 0.545393 0.962002 1.171693
v 0.541475 0.962002 -0.001839
v 0.541475 0.962002 -1.030496
v 0.541475 0.440208 -1.030496
v 0.541475 0.440208 -0.001839
v 1.098245 0.962002 -1.210394
v 0.541475 0.962002 -1.210394
v 0.541475 0.440208 -1.210394
v 1.098245 0.440208 -1.210394
v 0.541475 0.962002 -1.941230
v 0.541475 0.440208 -1.941230
vt 0.691068 0.609911
vt 0.691068 0.646093
vt 0.691068 0.682276
vt 0.691068 0.718458
vt 0.691068 0.754641
vt 0.654886 0.609911
vt 0.654886 0.646093
vt 0.691068 0.682276
vt 0.691068 0.718458
vt 0.709159 0.609911
vt 0.709159 0.754641
vt 0.709159 0.646093
vt 0.709159 0.682276
vt 0.709159 0.682276
vt 0.709159 0.718458
vt 0.709159 0.718458
vt 0.691068 0.682276
vt 0.709159 0.682276
vt 0.709159 0.718458
vt 0.691068 0.718458
vt 0.709159 0.718458
vt 0.709159 0.682276
vt 0.709159 0.682276
vt 0.709159 0.718458
vt 0.709159 0.718458
vt 0.709159 0.682276
vt 0.709159 0.682276
vt 0.709159 0.718458
vt 0.709159 0.682276
vt 0.709159 0.718458
vt 0.691068 0.609911
vt 0.709159 0.609911
vt 0.709159 0.646093
vt 0.691068 0.646093
vt 0.709159 0.682276
vt 0.691068 0.682276
vt 0.691068 0.682276
vt 0.709159 0.682276
vt 0.709159 0.718458
vt 0.691068 0.718458
vt 0.691068 0.718458
vt 0.709159 0.718458
vt 0.709159 0.754641
vt 0.691068 0.754641
vt 0.654886 0.609911
vt 0.654886 0.646093
vt 0.709159 0.682276
vt 0.691068 0.682276
vt 0.709159 0.718458
vt 0.691068 0.718458
vt 0.709159 0.718458
vt 0.709159 0.682276
vt 0.709159 0.718458
vt 0.709159 0.718458
vt 0.709159 0.682276
vt 0.709159 0.682276
vt 0.709159 0.718458
vt 0.709159 0.682276
vt 0.709159 0.682276
vt 0.709159 0.718458
vn -0.002329 0.000000 0.999997
vn -0.002329 0.000000 0.999997
vn -0.002329 0.000000 0.999997
vn -0.002329 0.000000 0.999997
vn 0.000000 1.000000 0.000000
vn 0.000000 1.000000 0.000000
vn 0.000000 1.000000 0.000000
vn 0.000000 1.000000 0.000000
vn 0.000000 0.000000 -1.000000
vn 0.000000 0.000000 -1.000000
vn 0.000000 0.000000 -1.000000
vn 0.000000 0.000000 -1.000000
vn 0.000000 -1.000000 0.000000
vn 0.000000 -1.000000 0.000000
vn 0.000000 -1.000000 0.000000
vn 0.000000 -1.000000 0.000000
vn -0.987961 0.000000 0.154707
vn -0.900454 0.000000 0.434951
vn -0.900454 0.000000 0.434951
vn -0.987961 0.000000 0.154707
vn 0.000000 1.000000 -0.000000
vn 0.000000 1.000000 -0.000000
vn 0.000000 -1.000000 0.000000
vn 0.000000 -1.000000 0.000000
vn -0.994925 0.000000 -0.100624
vn -0.994925 0.000000 -0.100624
vn 0.999995 0.000000 0.003338
vn 0.999994 0.000000 0.003338
vn 0.999995 0.000000 0.003338
vn 0.999995 0.000000 0.003338
vn 0.000000 0.000000 1.000000
vn 0.000000 0.000000 1.000000
vn 0.000000 0.000000 1.000000
vn 0.000000 0.000000 1.000000
vn 0.000000 -1.000000 0.000000
vn 0.000000 -1.000000 0.000000
vn 0.000000 0.000000 -1.000000
vn 0.000000 0.000000 -1.000000
vn 0.000000 0.000000 -1.000000
vn 0.000000 0.000000 -1.000000
vn 0.000000 1.000000 0.000000
vn 0.000000 1.000000 0.000000
vn 0.000000 1.000000 -0.000000
vn 0.000000 1.000000 -0.000000
vn 0.000000 -1.000000 0.000000
vn 0.000000 -1.000000 0.000000
vn -0.729538 0.000000 -0.683941
vn -0.729538 0.000000 -0.683941
vn 0.000000 1.000000 0.000000
vn -1.000000 0.000000 0.000000
vn -1.000000 0.000000 0.000000
vn -1.000000 0.000000 0.000000
vn -1.000000 0.000000 0.000000
vn 0.000000 1.000000 0.000000
vn 0.000000 1.000000 0.000000
vn 0.000000 -1.000000 0.000000
vn 0.000000 -1.000000 0.000000
vn 0.000000 -1.000000 0.000000
vn 0.002329 0.000000 0.999997
vn 0.002329 0.000000 0.999997
vn 0.002329 0.000000 0.999997
vn 0.002329 0.000000 0.999997
vn 0.000000 1.000000 0.000000
vn 0.000000 1.000000 0.000000
vn 0.000000 1.000000 0.000000
vn 0.000000 1.000000 0.000000
vn 0.000000 0.000000 -1.000000
vn 0.000000 0.000000 -1.000000
vn 0.000000 0.000000 -1.000000
vn 0.000000 0.000000 -1.000000
vn 0.000000 -1.000000 0.000000
vn 0.000000 -1.000000 0.000000
vn 0.000000 -1.000000 0.000000
vn 0.000000 -1.000000 0.000000
vn 0.987961 0.000000 0.154707
vn 0.987961 0.000000 0.154707
vn 0.900454 0.000000 0.434951
vn 0.900454 0.000000 0.434951
vn 0.000000 1.000000 0.000000
vn 0.000000 1.000000 0.000000
vn 0.000000 -1.000000 0.000000
vn 0.000000 -1.000000 0.000000
vn 0.994925 0.000000 -0.100624
vn 0.994925 0.000000 -0.100624
vn -0.999995 -0.000000 0.003338
vn -0.999995 -0.000000 0.003338
vn -0.999995 -0.000000 0.003338
vn -0.999994 -0.000000 0.003338
vn 0.000000 0.000000 1.000000
vn 0.000000 0.000000 1.000000
vn 0.000000 0.000000 -1.000000
vn 0.000000 0.000000 -1.000000
vn 0.000000 1.000000 0.000000
vn 0.000000 1.000000 0.000000
vn 0.000000 -1.000000 0.000000
vn 0.000000 -1.000000 0.000000
vn 0.729538 0.000000 -0.683941
vn 0.729538 0.000000 -0.683941
vn 1.000000 0.000000 0.000000
vn 1.000000 0.000000 0.000000
vn 1.000000 0.000000 0.000000
vn 1.000000 0.000000 0.000000
vn 0.000000 1.000000 0.000000
vn 0.000000 -1.000000 0.000000
s off
g Foam
usemtl lambert2SG
f 1/1/1 7/10/2 8/12/3 2/2/4
s 1
f 2/2/5 8/12/6 9/13/7 3/3/8
s off
f 13/17/9 14/18/10 15/19/11 16/20/12
s 2
f 4/4/13 12/16/14 7/11/15 1/5/16
s 3
f 4/6/17 1/1/18 2/2/19 3/7/20
s 1
f 3/3/8 9/13/7 10/14/21 5/8/22
s 2
f 11/15/23 12/16/14 4/4/13 6/9/24
s 3
f 4/4/17 3/3/20 5/8/25 6/9/26
s off
f 8/12/27 7/11/28 12/16/29 9/13/30
s 4
f 9/13/31 12/16/32 20/24/33 19/23/34
s 2
f 12/16/14 11/15/23 21/25/35 20/24/36
s 5
f 18/21/37 17/22/38 25/29/39 26/30/40
s 1
f 10/14/21 9/13/7 19/23/41 22/26/42
f 5/8/22 10/14/21 14/18/43 13/17/44
s 2
f 11/15/23 6/9/24 16/20/45 15/19/46
s 3
f 6/9/26 5/8/25 13/17/47 16/20/48
s 1
f 10/14/21 22/26/42 23/27/49 14/18/43
s off
f 15/19/50 14/18/51 17/22/52 18/21/53
s 1
f 14/18/43 23/27/49 25/29/54 17/22/55
s 2
f 24/28/56 21/25/35 11/15/23 15/19/46
f 26/30/57 24/28/56 15/19/46 18/21/58
s off
f 27/31/59 28/34/60 34/33/61 33/32/62
s 1
f 28/34/63 29/36/64 35/35/65 34/33/66
s off
f 39/37/67 42/40/68 41/39/69 40/38/70
s 2
f 30/41/71 27/44/72 33/43/73 38/42/74
s 8
f 30/45/75 29/46/76 28/34/77 27/31/78
s 1
f 29/36/64 31/48/79 36/47/80 35/35/65
s 2
f 37/49/81 32/50/82 30/41/71 38/42/74
s 8
f 30/41/75 32/50/83 31/48/84 29/36/76
s off
f 34/33/85 35/35/86 38/42/87 33/43/88
s 4
f 35/35/89 19/52/34 20/51/33 38/42/90
s 2
f 38/42/74 20/51/36 21/53/35 37/49/81
s 5
f 44/54/91 26/57/40 25/56/39 43/55/92
s 1
f 36/47/80 22/58/42 19/52/41 35/35/65
f 31/48/79 39/37/93 40/38/94 36/47/80
s 2
f 37/49/81 41/39/95 42/40/96 32/50/82
s 8
f 32/50/83 42/40/97 39/37/98 31/48/84
s 1
f 36/47/80 40/38/94 23/59/49 22/58/42
s off
f 41/39/99 44/54/100 43/55/101 40/38/102
s 1
f 40/38/94 43/55/103 25/56/54 23/59/49
s 2
f 24/60/56 41/39/95 37/49/81 21/53/35
f 26/57/57 44/54/104 41/39/95 24/60/56
